<svg width="32" height="32" viewBox="0 0 32 32" fill="none" xmlns="http://www.w3.org/2000/svg">
<path d="M31 16C31 24.2843 24.2843 31 16 31C7.71573 31 1 24.2843 1 16C1 7.71573 7.71573 1 16 1C24.2843 1 31 7.71573 31 16Z" fill="#F8F8FA" stroke="#FFA927"/>
<path fill-rule="evenodd" clip-rule="evenodd" d="M21.3953 17.001C21.6275 16.6524 21.8137 16.2792 21.9504 15.8807C22.1567 15.2796 22.7552 15.001 23.2871 15.2585C23.819 15.5159 24.0831 16.2119 23.8768 16.8131C23.6689 17.419 23.3897 17.9743 23.0535 18.4789L21.3953 17.001ZM18.419 19.3366C19.2573 18.975 19.9895 18.5112 20.5796 17.9578L21.921 19.8113C21.135 20.5485 20.2054 21.1251 19.205 21.5566L18.419 19.3366ZM14.582 20.2019C15.4783 20.1511 16.359 20.0075 17.1858 19.7729L17.7475 22.0728C16.7851 22.3459 15.7738 22.5094 14.7555 22.5671L14.582 20.2019ZM10.6187 19.8092C11.4567 20.0336 12.3475 20.1683 13.2517 20.2093L13.2417 22.5755C12.2146 22.529 11.1916 22.3757 10.2154 22.1143L10.6187 19.8092ZM7.12696 18.0248C7.73073 18.5688 8.48688 19.0287 9.35738 19.3859L8.72157 21.6124C7.6809 21.1854 6.70849 20.6087 5.88539 19.867L7.12696 18.0248ZM5.73308 15.959C5.86419 16.3532 6.04957 16.7237 6.28631 17.0711L4.67484 18.488C4.31401 17.9585 4.01816 17.3736 3.80566 16.7347C3.60016 16.1168 3.86505 15.4423 4.3973 15.2281C4.92954 15.0139 5.52759 15.3412 5.73308 15.959Z" fill="#FFA927"/>
<path fill-rule="evenodd" clip-rule="evenodd" d="M22.5826 17.4552C21.1895 17.1747 19.8976 18.2632 19.9377 19.6837L19.9391 19.7309C19.9508 20.1474 20.0781 20.5523 20.3067 20.9006L21.883 23.302C22.3836 24.0647 23.2341 24.5245 24.1464 24.5258L24.1849 24.5259C25.5237 24.5277 26.6565 23.5371 26.8332 22.2101C26.9562 21.2869 26.5888 20.3663 25.8639 19.7815L23.5338 17.9016C23.2573 17.6785 22.931 17.5253 22.5826 17.4552ZM25.1355 22.8962C25.7126 22.3915 26.0052 21.782 25.7889 21.5347C25.5727 21.2875 24.9296 21.4961 24.3525 22.0007C23.7754 22.5053 23.4829 23.1148 23.6991 23.3621C23.9153 23.6094 24.5585 23.4008 25.1355 22.8962Z" fill="#F9A629"/>
<path fill-rule="evenodd" clip-rule="evenodd" d="M9.88889 9.70361C10.5025 9.70361 11 10.2011 11 10.8147V13.2221C11 13.8358 10.5025 14.3332 9.88889 14.3332C9.27524 14.3332 8.77778 13.8358 8.77778 13.2221V10.8147C8.77778 10.2011 9.27524 9.70361 9.88889 9.70361Z" fill="#FFA927"/>
<path fill-rule="evenodd" clip-rule="evenodd" d="M18.3486 13.7322C18.1691 14.2111 17.6355 14.4538 17.1566 14.2744C16.6658 14.0904 16.1775 13.905 15.7954 13.7132C15.6029 13.6166 15.4009 13.5008 15.2247 13.3592C15.0561 13.2238 14.8384 13.0074 14.7257 12.6894C14.597 12.3263 14.6503 11.9626 14.8123 11.6616C14.9553 11.3959 15.1716 11.1961 15.371 11.0461C15.7709 10.7453 16.3678 10.4524 17.1335 10.1419C17.6074 9.94966 18.1474 10.178 18.3396 10.6519C18.5318 11.1258 18.3034 11.6657 17.8296 11.8579C17.4922 11.9948 17.2181 12.117 16.9984 12.2263C17.223 12.3199 17.4917 12.4223 17.8065 12.5403C18.2853 12.7197 18.528 13.2534 18.3486 13.7322ZM16.3735 11.906C16.3736 11.906 16.3754 11.9075 16.3785 11.9106C16.3749 11.9075 16.3734 11.906 16.3735 11.906Z" fill="#FFA927"/>
</svg>
