<svg width="81" height="16" viewBox="0 0 81 16" fill="none" xmlns="http://www.w3.org/2000/svg">
<path d="M0.264205 0.454545H4.05682L8.0625 10.2273H8.23295L12.2386 0.454545H16.0312V15H13.0483V5.53267H12.9276L9.16335 14.929H7.1321L3.3679 5.49716H3.24716V15H0.264205V0.454545ZM21.0721 15H17.7766L22.7979 0.454545H26.761L31.7752 15H28.4798L24.8363 3.77841H24.7227L21.0721 15ZM20.8661 9.28267H28.6502V11.6832H20.8661V9.28267ZM31.1946 2.99006V0.454545H43.1406V2.99006H38.6875V15H35.6477V2.99006H31.1946ZM46.136 15.1847C45.6673 15.1847 45.2648 15.0189 44.9286 14.6875C44.5972 14.3513 44.4315 13.9489 44.4315 13.4801C44.4315 13.0161 44.5972 12.6184 44.9286 12.2869C45.2648 11.9555 45.6673 11.7898 46.136 11.7898C46.5906 11.7898 46.9883 11.9555 47.3292 12.2869C47.6701 12.6184 47.8406 13.0161 47.8406 13.4801C47.8406 13.7926 47.7601 14.0791 47.5991 14.3395C47.4428 14.5952 47.2369 14.8011 46.9812 14.9574C46.7255 15.1089 46.4438 15.1847 46.136 15.1847ZM50.2251 15V13.1747L57.4837 2.99006H50.2109V0.454545H61.3473V2.27983L54.0817 12.4645H61.3615V15H50.2251ZM66.7965 0.454545V15H63.7212V0.454545H66.7965ZM69.3267 15V0.454545H75.0653C76.1686 0.454545 77.1084 0.665246 77.8849 1.08665C78.6615 1.50331 79.2533 2.08333 79.6605 2.8267C80.0724 3.56534 80.2784 4.41761 80.2784 5.38352C80.2784 6.34943 80.0701 7.2017 79.6534 7.94034C79.2367 8.67898 78.633 9.25426 77.8423 9.66619C77.0563 10.0781 76.1046 10.2841 74.9872 10.2841H71.3295V7.8196H74.4901C75.0819 7.8196 75.5696 7.7178 75.9531 7.5142C76.3414 7.30587 76.6302 7.01941 76.8196 6.65483C77.0137 6.28551 77.1108 5.86174 77.1108 5.38352C77.1108 4.90057 77.0137 4.47917 76.8196 4.11932C76.6302 3.75473 76.3414 3.47301 75.9531 3.27415C75.5649 3.07055 75.0724 2.96875 74.4759 2.96875H72.402V15H69.3267Z" fill="black"/>
</svg>
